<?xml version="1.0" encoding="utf-8"?>
<!-- Generator: Adobe Illustrator 19.1.0, SVG Export Plug-In . SVG Version: 6.00 Build 0)  -->
<svg version="1.1" id="Isolation_Mode" xmlns="http://www.w3.org/2000/svg" xmlns:xlink="http://www.w3.org/1999/xlink" x="0px"
	 y="0px" viewBox="0 0 43.5 43.5" style="enable-background:new 0 0 43.5 43.5;" xml:space="preserve">
<style type="text/css">
	.st0{fill:#39E4FD;}
	.st1{fill:none;}
</style>
<g id="XMLID_1_">
	<g id="XMLID_120_">
		<path class="st0" d="M21.8,0C9.7,0,0,9.7,0,21.8s9.7,21.8,21.8,21.8s21.8-9.7,21.8-21.8S33.8,0,21.8,0z M29.6,12.6
			c1.7,0,3.1,1.4,3.1,3.1s-1.4,3.1-3.1,3.1c-1.7,0-3.1-1.4-3.1-3.1S27.9,12.6,29.6,12.6z M13.9,12.6c1.7,0,3.1,1.4,3.1,3.1
			s-1.4,3.1-3.1,3.1c-1.7,0-3.1-1.4-3.1-3.1S12.2,12.6,13.9,12.6z M32.2,34.4c-1,0.6-2.2,0.2-2.8-0.7c-1.6-2.8-4.5-4.4-7.6-4.4
			s-6,1.7-7.6,4.4c-0.4,0.7-1.1,1-1.8,1c-0.3,0-0.7-0.1-1-0.3c-1-0.6-1.3-1.8-0.7-2.8c2.3-4,6.6-6.5,11.1-6.5s8.8,2.5,11.1,6.5
			C33.5,32.6,33.1,33.9,32.2,34.4z"/>
		<rect id="_x3C_Slice_x3E__3_" y="0" class="st1" width="43.5" height="43.5"/>
	</g>
</g>
</svg>
