<?xml version="1.0" encoding="utf-8"?>
<!-- Generator: Adobe Illustrator 19.1.0, SVG Export Plug-In . SVG Version: 6.00 Build 0)  -->
<svg version="1.1" id="Isolation_Mode" xmlns="http://www.w3.org/2000/svg" xmlns:xlink="http://www.w3.org/1999/xlink" x="0px"
	 y="0px" viewBox="0 0 43.5 43.5" style="enable-background:new 0 0 43.5 43.5;" xml:space="preserve">
<style type="text/css">
	.st0{fill:#39E4FD;}
	.st1{fill:none;}
</style>
<g id="XMLID_1_">
	<g id="XMLID_60_">
		<g>
			<path class="st0" d="M21.8,0C9.7,0,0,9.7,0,21.8s9.7,21.8,21.8,21.8s21.8-9.7,21.8-21.8S33.8,0,21.8,0z M13.9,12.6
				c1.7,0,3.1,1.4,3.1,3.1s-1.4,3.1-3.1,3.1s-3.1-1.4-3.1-3.1S12.2,12.6,13.9,12.6z M29.9,33.3H13.6c-1.1,0-2-0.9-2-2s0.9-2,2-2
				h16.3c1.1,0,2,0.9,2,2S31.1,33.3,29.9,33.3z M29.6,18.8c-1.7,0-3.1-1.4-3.1-3.1s1.4-3.1,3.1-3.1c1.7,0,3.1,1.4,3.1,3.1
				S31.3,18.8,29.6,18.8z"/>
		</g>
		<rect id="_x3C_Slice_x3E__2_" y="0" class="st1" width="43.5" height="43.5"/>
	</g>
</g>
</svg>
