<?xml version="1.0" encoding="utf-8"?>
<!-- Generator: Adobe Illustrator 19.1.0, SVG Export Plug-In . SVG Version: 6.00 Build 0)  -->
<svg version="1.1" id="Layer_1" xmlns="http://www.w3.org/2000/svg" xmlns:xlink="http://www.w3.org/1999/xlink" x="0px" y="0px"
	 viewBox="0 0 117.1 121.6" style="enable-background:new 0 0 117.1 121.6;" xml:space="preserve">
<style type="text/css">
	.st0{fill:#39E4FD;}
</style>
<g>
	<g>
		<path class="st0" d="M37.4,58c-0.7,8.5-7.8,15.2-16.5,15.2S5.1,66.5,4.4,58H0c0.7,10.9,9.8,19.6,20.9,19.6
			c11.1,0,20.2-8.7,20.9-19.6H37.4z"/>
		<path class="st0" d="M75.1,58c-0.7,8.5-7.8,15.2-16.5,15.2S42.7,66.5,42.1,58h-4.4c0.7,10.9,9.8,19.6,20.9,19.6
			c11.1,0,20.2-8.7,20.9-19.6H75.1z"/>
		<path class="st0" d="M112.7,58c-0.7,8.5-7.8,15.2-16.5,15.2S80.4,66.5,79.8,58h-4.4c0.7,10.9,9.8,19.6,20.9,19.6
			c11.1,0,20.2-8.7,20.9-19.6H112.7z"/>
	</g>
	<g>
		<path class="st0" d="M37.4,80c-0.7,8.5-7.8,15.2-16.5,15.2S5.1,88.5,4.4,80H0c0.7,10.9,9.8,19.6,20.9,19.6
			c11.1,0,20.2-8.7,20.9-19.6H37.4z"/>
		<path class="st0" d="M75.1,80c-0.7,8.5-7.8,15.2-16.5,15.2S42.7,88.5,42.1,80h-4.4c0.7,10.9,9.8,19.6,20.9,19.6
			c11.1,0,20.2-8.7,20.9-19.6H75.1z"/>
		<path class="st0" d="M112.7,80c-0.7,8.5-7.8,15.2-16.5,15.2S80.4,88.5,79.8,80h-4.4c0.7,10.9,9.8,19.6,20.9,19.6
			c11.1,0,20.2-8.7,20.9-19.6H112.7z"/>
	</g>
	<g>
		<path class="st0" d="M37.4,102c-0.7,8.5-7.8,15.2-16.5,15.2S5.1,110.5,4.4,102H0c0.7,10.9,9.8,19.6,20.9,19.6
			c11.1,0,20.2-8.7,20.9-19.6H37.4z"/>
		<path class="st0" d="M75.1,102c-0.7,8.5-7.8,15.2-16.5,15.2s-15.8-6.7-16.5-15.2h-4.4c0.7,10.9,9.8,19.6,20.9,19.6
			c11.1,0,20.2-8.7,20.9-19.6H75.1z"/>
		<path class="st0" d="M112.7,102c-0.7,8.5-7.8,15.2-16.5,15.2s-15.8-6.7-16.5-15.2h-4.4c0.7,10.9,9.8,19.6,20.9,19.6
			c11.1,0,20.2-8.7,20.9-19.6H112.7z"/>
	</g>
	<g>
		<polygon class="st0" points="55.5,0 55.5,25.2 55.5,40.8 42.5,28.1 42.5,37 58.5,52.9 74.5,37 74.5,28.1 61.5,40.8 61.5,25.2 
			61.5,0 		"/>
	</g>
</g>
</svg>
