<?xml version="1.0" encoding="utf-8"?>
<!-- Generator: Adobe Illustrator 19.1.0, SVG Export Plug-In . SVG Version: 6.00 Build 0)  -->
<svg version="1.1" id="Layer_1" xmlns="http://www.w3.org/2000/svg" xmlns:xlink="http://www.w3.org/1999/xlink" x="0px" y="0px"
	 viewBox="0 0 117.1 121.6" style="enable-background:new 0 0 117.1 121.6;" xml:space="preserve">
<style type="text/css">
	.st0{fill:#39E4FD;}
</style>
<g id="_x30_kbPu0.tif">
	<g>
		<path class="st0" d="M34.6,66.5c-3.1-2-6.6-3-10.1-3c-2.2,0-4.4,0.4-6.5,1.2C9.4,67.9,4.5,76.5,5.9,85.6
			c1.4,8.6,8.9,15.1,17.6,15.3c8.5,0.2,17.2,0.1,25.7,0.1c3.7,0,7.4,0,11.1,0l20.5,0.1c5.6,0,11.1,0,16.7,0c2.9,0,4.4-1,4.4-3
			c0-0.8-0.2-1.4-0.6-1.9c-0.7-0.8-2.1-1.2-4-1.2c-0.7,0-1.4,0-2.1,0l-14.9,0c-17.7,0-35.5,0-53.2,0c-1.9,0-4.2-0.1-6.3-0.7
			c-5.9-1.6-9.8-7.7-8.8-13.8c1-6.2,6.1-10.6,12.3-10.6c0,0,0.1,0,0.1,0c6.6,0,11.3,4.3,12.4,11.3c0.7,4.7,2.9,4.4,3.7,4.3
			c0.8-0.1,3-0.4,2.6-5.2C42.6,74.6,39.5,69.6,34.6,66.5z"/>
		<path class="st0" d="M74.1,38.6c-1.5,0-3,0.1-4.5,0.4C59.9,41,52.3,50.9,53,60.8c0.8,11.2,9.4,19.6,20.3,20
			c4.1,0.1,8.3,0.1,12.3,0.1c1.9,0,3.8,0,5.6,0l2.5,0c1,0,2,0,3,0c4.2,0,8.6,0,12.9,0c1.3,0,3.5-0.4,3.6-3.1c0-2-1.2-3-3.6-3.2
			c-0.6,0-1.3,0-2,0l-0.9,0c-3.3,0-6.6,0-9.8,0c-7.6,0-15.5,0-23.2-0.1c-7.4-0.1-13.6-5.7-14.4-13.1c-0.8-7.5,4-14.3,11.4-16.2
			c7.5-1.8,14.6,2.3,17.6,10.2c1.1,3,2.3,2.8,2.8,2.7c1-0.2,2.6-1.2,3.3-2.3c0.1-0.2,0.1-1.4-0.4-2.9C91.2,44.1,83.2,38.6,74.1,38.6
			z"/>
		<path class="st0" d="M51.5,23.1c-0.5-2.7-3.5-2.7-5.3-2.4c-9,1.4-15.8,9.5-15.8,18.8c0.1,4.8,1.7,9,4.9,12.6
			c1.1,1.2,3.2,3,5.3,1.3c0.7-0.5,1-1.1,1.1-1.8c0.1-1-0.5-2.3-1.6-3.7c-3.2-3.8-4.2-8.5-2.7-12.7c1.5-4.3,5.2-7.3,10.1-8.3
			C50.6,26.3,51.9,25,51.5,23.1z"/>
	</g>
</g>
</svg>
